<?xml version="1.0" encoding="utf-8"?>
<!-- Generator: Adobe Illustrator 27.9.0, SVG Export Plug-In . SVG Version: 6.00 Build 0)  -->
<svg version="1.1" id="Capa_1" xmlns="http://www.w3.org/2000/svg" xmlns:xlink="http://www.w3.org/1999/xlink" x="0px" y="0px"
	 viewBox="0 0 151 172.2" style="enable-background:new 0 0 151 172.2;" xml:space="preserve">
<style type="text/css">
	.st0{fill:#0A2D74;}
	.st1{fill:#002D72;}
	.st2{fill:#BA0C2F;}
	.st3{fill:#E2E2E2;}
	.st4{fill:#FFFFFF;}
	.st5{fill:#EFEAE9;}
	.st6{fill:#0046BB;}
</style>
<g>
	<g>
		<rect y="72.4" class="st0" width="33.4" height="99.8"/>
		<rect x="39.2" y="72.4" class="st1" width="33.4" height="99.8"/>
		<rect x="78.4" y="72.4" class="st2" width="33.4" height="99.8"/>
		<rect x="117.6" y="72.4" class="st3" width="33.4" height="99.8"/>
	</g>
	<g>
		<g>
			
				<ellipse transform="matrix(0.7071 -0.7071 0.7071 0.7071 -31.2719 75.497)" class="st4" cx="75.5" cy="75.5" rx="75.5" ry="75.5"/>
			<g>
				<g>
					<g>
						<path class="st4" d="M128.3,75.5c0,29-23.6,52.6-52.8,52.6c-29.2,0-52.8-23.5-52.8-52.6c0-29,23.6-52.6,52.8-52.6
							C104.7,22.9,128.3,46.5,128.3,75.5L128.3,75.5z"/>
					</g>
					<g>
						<path class="st4" d="M118.4,80.4c0.6-1.5,1-3.3,1-5.4c0-4.3-1.9-7.9-5.5-10.3c-3-2-6.7-3-11.2-3c-4.5,0-8.3,1-11.2,3
							c-0.1,0.1-0.3,0.2-0.4,0.3c-1-1-2.4-1.8-4-2.3c-1.8-0.6-4.4-0.9-7.7-0.9l-13.3,0l-7,0l-27.4,0l0,11.6h2.9V78
							c0,2,0.7,5,4.3,7.5c2.6,1.9,6.2,2.8,10.5,2.8c4.1,0,7.4-0.9,9.9-2.8l0,2.7l22.4,0v-7.8c2-0.2,3.6-0.5,4.9-0.9c0,0,0.1,0,0.1,0
							c1.4,4.1,5.3,8.8,16,8.8c1.3,0,2.5-0.1,3.6-0.2l4.8,4.4l12.3-8.1L118.4,80.4z"/>
					</g>
					<g>
						<path class="st4" d="M110.9,94.8l-5.3-4.8c-0.9,0.1-2,0.1-3,0.1c-10.6,0-15.2-4.3-17.1-8.5c-0.7,0.1-1.4,0.3-2.1,0.4v8
							l-26.1,0v-1.4c-2.3,1-5,1.5-8.1,1.5c-4.7,0-8.6-1.1-11.5-3.2c-4.2-2.9-5.1-6.5-5.1-9l0-2.6l-2.9,0l0-15.3l49.5,0
							c3.6,0,6.3,0.3,8.3,0.9c1.3,0.4,2.5,1,3.6,1.8c3.1-1.9,7-2.8,11.5-2.8c4.9,0,9,1.1,12.3,3.3c4.1,2.7,6.3,6.8,6.3,11.8
							c0,1.7-0.2,3.3-0.7,4.8l6,4.6L110.9,94.8z M106.9,86.2l4.4,4l8.9-5.9l-4.1-3.1l0.6-1.3c0.6-1.4,0.9-3,0.9-4.7
							c0-3.7-1.6-6.7-4.7-8.7c-2.6-1.8-6.1-2.7-10.2-2.7c-4.1,0-7.5,0.9-10.2,2.7c-0.1,0-0.1,0.1-0.1,0.1l-1.4,1.1l-1.1-1.1
							c-0.9-0.8-2-1.5-3.3-1.9c-1.7-0.5-4-0.8-7.2-0.8l-45.9,0v8h2.9V78c0,2.3,1.2,4.3,3.5,6c2.3,1.7,5.5,2.5,9.4,2.5
							c3.7,0,6.7-0.8,8.8-2.4l3-2.3v4.6l18.7,0l0-7.7l1.7-0.1c1.8-0.2,3.3-0.4,4.6-0.8l1.8-0.6l0.6,1.7c1.7,5,6.5,7.6,14.3,7.6
							c1.2,0,2.4-0.1,3.4-0.2L106.9,86.2z"/>
					</g>
					<g>
						<g>
							<path class="st0" d="M118.3,80.4c0.6-1.5,1-3.3,1-5.4c0-4.3-1.9-7.9-5.5-10.3c-3-2-6.7-3-11.2-3c-4.5,0-8.3,1-11.2,3
								c-0.1,0.1-0.3,0.2-0.4,0.3c-1-1-2.4-1.8-4-2.3c-1.8-0.6-4.4-0.9-7.7-0.9l-13.3,0h-7l-27.4,0l0,11.6h2.9V78c0,2,0.7,5,4.3,7.5
								c2.6,1.9,6.2,2.8,10.5,2.8c4.1,0,7.4-0.9,9.9-2.8l0,2.7l22.4,0l0-7.8c2-0.2,3.6-0.5,4.9-0.9c0,0,0.1,0,0.1,0
								c1.4,4.1,5.3,8.8,16,8.8c1.3,0,2.5-0.1,3.6-0.2l4.8,4.4l12.3-8.1L118.3,80.4z"/>
						</g>
					</g>
					<g>
						<path class="st5" d="M76.7,72.1h-1.4V71h2.6c1.9,0,2.4,0.1,2.4,0.1c0.1,0,0.2,0.2,0.2,0.2c0,0,0.1,0.6-0.2,0.7
							C80.1,72.1,79.3,72.1,76.7,72.1L76.7,72.1z M99.3,72.5c0.8-0.6,2-1,3.6-1c1.5,0,2.6,0.3,3.4,1c0.8,0.6,1.1,1.3,1.1,2.5
							c0,0.1,0,0.2,0,0.3l-2.3-1.7l-5.2,4.6c-0.2-0.1-0.4-0.2-0.5-0.4c-0.9-0.7-1.2-1.2-1.2-2.6C98.2,73.5,98.8,72.9,99.3,72.5
							L99.3,72.5z M115.1,81.2c1.2-1.6,1.8-3.7,1.8-6.1c0-3.5-1.5-6.2-4.4-8.2c-2.5-1.7-5.8-2.5-9.8-2.5c-4,0-7.3,0.9-9.8,2.5
							c-0.9,0.6-1.6,1.3-2.3,2c-0.6-1.7-2.1-3-4.3-3.7c-1.6-0.5-3.9-0.7-7-0.7l-15.8,0h-1.9H49.7V71h2.9l0,6.3
							c0,0.9-0.3,1.1-0.5,1.2c-0.1,0.1-0.8,0.3-2.8,0.3c-3.1,0-3.1-1-3.1-1.4l0-6.3h3l0-6.6l-15.1,0l0,6.6l2.9,0v7
							c0,2.1,1.1,3.9,3.2,5.4c2.2,1.6,5.2,2.4,9,2.4c3.7,0,6.6-0.8,8.6-2.4c1.7-1.4,2.6-3.2,2.6-5.3l0-7h1.1v0.1h3.5v7.6h-3.3l0,7
							l17.3,0v-7h-3.8l0-0.6h1.3c4.1,0,7.1-0.3,9.2-1c1.1-0.4,2-0.8,2.7-1.3c0.3,4.7,3,10,14.2,10c1.6,0,3.1-0.1,4.4-0.3l4.2,3.8
							l7.7-5.1L115.1,81.2z"/>
					</g>
					<g>
						<g>
							<path class="st2" d="M61.9,69.6l-3,0l0,8.7c0,1.6-0.7,2.9-2,4c-1.7,1.4-4.2,2.1-7.5,2.1c-3.4,0-6.1-0.7-8-2.1
								c-1.7-1.2-2.5-2.5-2.5-4l0-8.7l-2.9,0v-3.2h11.8v3.2h-3l0,8c0,2.1,1.6,3.1,4.8,3.1c1.7,0,2.8-0.1,3.4-0.4
								c1-0.4,1.6-1.3,1.6-2.7l0-8h-2.9l0-3.2l10.4,0V69.6z"/>
						</g>
					</g>
					<g>
						<g>
							<path class="st2" d="M73.6,69.6l0,3.9h3.1c2.4,0,3.9-0.1,4.5-0.4c0.6-0.3,1-0.8,1-1.6c0-1-0.5-1.6-1.5-1.8
								c-0.4-0.1-1.3-0.1-2.8-0.1H73.6z M66.8,80.6l0-11l-3.5,0v-3.3l12.9,0h1.6h1.6c2.9,0,5.1,0.2,6.5,0.7c2.3,0.7,3.5,2.1,3.5,4.2
								c0,2.2-1.3,3.7-4,4.6c-1.9,0.6-4.8,0.9-8.7,0.9h-3v4h3.8v3.6l-14,0v-3.6H66.8z"/>
						</g>
					</g>
					<g>
						<g>
							<path class="st2" d="M105.2,76l3.2,2.4c0.5-0.8,0.7-1.9,0.7-3.1c0-1.7-0.6-3.1-1.8-4.1c-1.1-0.9-2.7-1.4-4.6-1.4
								c-2,0-3.5,0.4-4.6,1.3c-1.2,0.9-1.8,2.3-1.8,4.1c0,1.9,0.6,3.3,1.9,4.3c1.1,0.9,2.6,1.4,4.5,1.4c0.6,0,1.1,0,1.6-0.1l-2.3-2
								L105.2,76z M116.2,84.3l-4.6,3.1l-3.9-3.5c-1.4,0.3-3.1,0.4-5,0.4c-8.4,0-12.5-3-12.5-9c0-2.9,1.2-5.2,3.6-6.8
								c2.3-1.5,5.2-2.3,8.9-2.3c3.7,0,6.6,0.8,8.9,2.3c2.4,1.6,3.6,3.9,3.6,6.8c0,2.8-0.9,4.9-2.6,6.4L116.2,84.3z"/>
						</g>
					</g>
					<g>
						<g>
							<path class="st0" d="M75.5,127.6c-28.8,0-52.1-23.3-52.1-52.1c0-28.8,23.3-52.1,52.1-52.1c28.8,0,52.1,23.3,52.1,52.1
								C127.6,104.3,104.3,127.6,75.5,127.6L75.5,127.6z M75.5,5.1C36.6,5.1,5.1,36.6,5.1,75.5c0,38.9,31.5,70.4,70.4,70.4
								c38.9,0,70.4-31.5,70.4-70.4C145.9,36.6,114.4,5.1,75.5,5.1L75.5,5.1z"/>
						</g>
					</g>
					<g>
						<g>
							<path class="st2" d="M23.4,73.3c1.4-29.2,26.3-50.1,52.1-49.9c28.3,0.3,50.1,21.5,52.1,49.9l18.3,0
								c-0.3-38.6-31.6-68.1-70.4-68.1C36.8,5.1,5.4,34.6,5.1,73.3L23.4,73.3z"/>
						</g>
					</g>
				</g>
				<g>
					<polygon class="st4" points="19.9,58.1 14.7,56.3 15.7,53.3 16.6,53.6 16,55.5 17.1,55.9 17.7,53.9 18.7,54.2 18,56.2 
						20.3,56.9 					"/>
				</g>
				<g>
					<g>
						<path class="st4" d="M21.7,50.8c0.2-0.5,0.2-0.9,0-1.3c-0.2-0.4-0.5-0.8-1-1c-0.5-0.2-0.9-0.2-1.4-0.1c-0.5,0.2-0.8,0.5-1,0.9
							c-0.2,0.5-0.2,0.9,0,1.3c0.2,0.4,0.5,0.8,1,1c0.5,0.2,1,0.3,1.4,0.1C21.1,51.6,21.5,51.3,21.7,50.8L21.7,50.8z M21.2,47.4
							c0.4,0.2,0.7,0.4,0.9,0.7c0.3,0.3,0.5,0.6,0.6,1c0.1,0.4,0.2,0.8,0.2,1.1c0,0.4-0.1,0.8-0.3,1.1c-0.1,0.3-0.3,0.6-0.6,0.8
							c-0.2,0.2-0.5,0.5-0.8,0.6C20.9,52.9,20.5,53,20,53c-0.4,0-0.8-0.1-1.2-0.3c-0.4-0.2-0.7-0.4-0.9-0.7c-0.3-0.3-0.5-0.6-0.6-1
							c-0.1-0.4-0.2-0.7-0.2-1.1c0-0.4,0.1-0.8,0.3-1.1c0.2-0.4,0.4-0.7,0.7-0.9c0.3-0.3,0.6-0.5,1-0.6c0.4-0.1,0.7-0.2,1.1-0.2
							C20.5,47.2,20.8,47.3,21.2,47.4L21.2,47.4z"/>
					</g>
					<g>
						<path class="st4" d="M22.3,44.7l0.1-0.2c0.2-0.4,0.4-0.7,0.3-0.9c0-0.2-0.1-0.3-0.4-0.5c-0.2-0.1-0.4-0.2-0.6-0.1
							c-0.2,0.1-0.4,0.3-0.6,0.7L21,43.9L22.3,44.7z M26.4,43.8L25.7,45l-2.9,0l2.2,1.3l-0.6,1l-4.8-2.8l0.8-1.5
							c0.3-0.6,0.7-0.9,1.1-1.1c0.4-0.2,0.8-0.1,1.3,0.2c0.3,0.2,0.5,0.5,0.7,0.8c0.1,0.3,0.1,0.7,0,1L26.4,43.8z"/>
					</g>
					<g>
						<path class="st4" d="M26.7,43.2l-3.9-3.9l0.7-1l3.2,1.1c0.1,0,0.2,0.1,0.3,0.1c0.1,0.1,0.3,0.1,0.4,0.2
							c-0.1-0.1-0.2-0.2-0.3-0.3c-0.1-0.1-0.2-0.2-0.2-0.2l-2-2.8l0.7-1l4.9,2.6l-0.7,0.9L27,37.2c-0.2-0.1-0.4-0.2-0.5-0.3
							c-0.1-0.1-0.2-0.1-0.3-0.2c0,0-0.1-0.1-0.1-0.1c0,0,0,0-0.1,0c0.2,0.2,0.3,0.3,0.4,0.4c0.1,0.1,0.2,0.2,0.2,0.3l2.1,3
							l-0.4,0.5L25,39.7c0,0-0.1,0-0.3-0.1c-0.1-0.1-0.3-0.2-0.6-0.3l0.1,0.1c0.2,0.2,0.4,0.3,0.7,0.6l0,0l2.4,2.3L26.7,43.2z"/>
					</g>
					<g>
						<path class="st4" d="M31.8,33.5l-1.7-0.8c0,0-0.1-0.1-0.2-0.1c-0.1-0.1-0.2-0.2-0.4-0.3c0.1,0.1,0.2,0.3,0.3,0.4
							c0.1,0.1,0.1,0.2,0.2,0.2l0.9,1.6L31.8,33.5z M31,37.5l-2.6-5.3l0.9-1l5.5,2.2l-0.9,1l-1.2-0.5l-1.4,1.6l0.6,1.1L31,37.5z"/>
					</g>
					<g>
						<path class="st4" d="M35.5,32.7l-3.6-4.2l0.9-0.8l3.9,0.8c0.1,0,0.3,0.1,0.4,0.1c0.2,0.1,0.4,0.2,0.6,0.3
							c-0.1-0.1-0.2-0.2-0.4-0.3c-0.1-0.1-0.3-0.3-0.4-0.4l-2-2.3l0.8-0.7l3.6,4.2l-0.9,0.8l-4-0.8c-0.1,0-0.3-0.1-0.4-0.1
							c-0.2-0.1-0.4-0.2-0.6-0.3c0.1,0.1,0.2,0.2,0.4,0.3c0.1,0.1,0.3,0.3,0.4,0.4l2.1,2.4L35.5,32.7z"/>
					</g>
					<g>
						<path class="st4" d="M41.2,26.8l0.5-0.4c0.5-0.3,0.8-0.7,0.9-1.1c0.1-0.4-0.1-0.8-0.4-1.3c-0.3-0.5-0.7-0.8-1.1-0.9
							c-0.4-0.1-0.8,0.1-1.3,0.4l-0.5,0.4L41.2,26.8z M40.8,28.3l-3.1-4.5l1.2-0.8c0.5-0.3,0.9-0.6,1.2-0.7c0.3-0.1,0.7-0.2,1-0.2
							c0.4,0,0.8,0.1,1.2,0.3c0.4,0.2,0.7,0.5,0.9,0.9c0.3,0.4,0.4,0.8,0.5,1.2c0.1,0.4,0,0.8-0.1,1.2c-0.1,0.3-0.3,0.6-0.5,0.8
							c-0.2,0.2-0.6,0.5-1,0.9l-0.3,0.2L40.8,28.3z"/>
					</g>
					<g>
						<path class="st4" d="M48,22.8c0.4-0.2,0.7-0.6,0.8-1c0.1-0.5,0.1-0.9-0.2-1.4c-0.2-0.5-0.6-0.8-1-0.9
							c-0.5-0.2-0.9-0.1-1.3,0.1c-0.4,0.2-0.7,0.6-0.9,1c-0.1,0.5-0.1,0.9,0.2,1.4c0.2,0.5,0.6,0.8,1,0.9C47.1,23.1,47.5,23,48,22.8
							L48,22.8z M49.7,19.8c0.2,0.3,0.3,0.7,0.3,1.1c0,0.4,0,0.8-0.1,1.1c-0.1,0.4-0.3,0.7-0.6,1c-0.3,0.3-0.5,0.5-0.9,0.7
							c-0.3,0.2-0.6,0.3-1,0.3c-0.3,0-0.7,0-1,0c-0.4-0.1-0.8-0.3-1.2-0.5c-0.3-0.3-0.6-0.6-0.8-1c-0.2-0.4-0.3-0.7-0.3-1.1
							c0-0.4,0-0.7,0.1-1.1c0.1-0.4,0.3-0.7,0.6-1c0.3-0.3,0.6-0.5,0.9-0.7c0.3-0.2,0.7-0.3,1.1-0.3c0.4,0,0.8,0,1.1,0.1
							c0.4,0.1,0.7,0.3,1,0.5C49.3,19.1,49.5,19.4,49.7,19.8L49.7,19.8z"/>
					</g>
				</g>
				<g>
					<polygon class="st4" points="55.5,15.7 57,19.9 55.9,20.3 54.4,16 53.1,16.5 52.8,15.5 56.5,14.3 56.8,15.2 					"/>
				</g>
				<g>
					<g>
						<path class="st4" d="M61.3,16.5l-1-1.6c0,0-0.1-0.1-0.1-0.2c-0.1-0.1-0.1-0.3-0.2-0.4c0,0.2,0,0.3,0,0.5c0,0.1,0,0.2,0,0.3
							l-0.1,1.8L61.3,16.5z M58.5,19.4l0.7-5.8l1.3-0.3l3.4,4.8l-1.3,0.3l-0.7-1l-2.1,0.5l-0.1,1.2L58.5,19.4z"/>
					</g>
				</g>
				<g>
					<polygon class="st4" points="64.9,17.9 64,12.4 65.2,12.2 65.9,16.7 67.8,16.4 67.9,17.4 					"/>
				</g>
				<g>
					<polygon class="st4" points="69.2,17.2 68.7,11.8 71.9,11.5 72,12.5 70,12.6 70.1,13.8 72.1,13.6 72.2,14.6 70.1,14.8 
						70.2,16.1 72.3,16 72.4,17 					"/>
				</g>
				<g>
					<g>
						<path class="st4" d="M74,16.9l0.1-5.5l1.2,0l2.4,3.2c0.1,0.1,0.1,0.2,0.2,0.4c0.1,0.2,0.2,0.4,0.2,0.6c0-0.2,0-0.3,0-0.5
							c0-0.2,0-0.4,0-0.6l0.1-3.1l1.1,0L79.2,17l-1.2,0l-2.4-3.3c-0.1-0.1-0.1-0.2-0.2-0.4c-0.1-0.2-0.2-0.4-0.2-0.6
							c0,0.2,0,0.3,0,0.5c0,0.2,0,0.4,0,0.6l-0.1,3.1L74,16.9z"/>
					</g>
				</g>
				<g>
					<polygon class="st4" points="83.5,12.9 82.9,17.4 81.8,17.3 82.3,12.8 81,12.6 81.1,11.6 84.9,12.1 84.8,13.1 					"/>
				</g>
				<g>
					<g>
						<path class="st4" d="M88.2,17.4c0.5,0.1,0.9,0,1.3-0.2c0.4-0.3,0.6-0.7,0.8-1.2c0.1-0.5,0-1-0.2-1.4c-0.2-0.4-0.6-0.7-1.1-0.8
							c-0.5-0.1-0.9,0-1.3,0.2c-0.4,0.3-0.7,0.7-0.8,1.2c-0.1,0.5-0.1,1,0.2,1.4C87.4,17.1,87.7,17.3,88.2,17.4L88.2,17.4z
							 M91.5,16.3c-0.1,0.4-0.2,0.7-0.5,1c-0.2,0.3-0.5,0.6-0.8,0.8c-0.3,0.2-0.7,0.3-1.1,0.4c-0.4,0.1-0.8,0.1-1.1,0
							c-0.3-0.1-0.6-0.2-0.9-0.4c-0.3-0.2-0.5-0.4-0.8-0.7c-0.3-0.3-0.5-0.7-0.6-1.1c-0.1-0.4-0.1-0.8,0-1.3c0.1-0.4,0.2-0.7,0.5-1
							c0.2-0.3,0.5-0.6,0.8-0.8c0.3-0.2,0.7-0.3,1.1-0.4c0.4-0.1,0.8-0.1,1.1,0c0.4,0.1,0.7,0.2,1,0.5c0.3,0.2,0.6,0.5,0.8,0.8
							c0.2,0.3,0.3,0.7,0.4,1C91.6,15.5,91.6,15.9,91.5,16.3L91.5,16.3z"/>
					</g>
					<g>
						<path class="st4" d="M98.5,19.5l0.1-1.9c0-0.1,0-0.1,0-0.3c0-0.1,0.1-0.3,0.1-0.5c-0.1,0.2-0.2,0.3-0.3,0.4
							c-0.1,0.1-0.1,0.2-0.2,0.2L97,18.9L98.5,19.5z M94.4,20.1l4-4.3l1.2,0.5l-0.1,5.9l-1.2-0.5l0-1.3l-2-0.8l-0.8,0.9L94.4,20.1z"
							/>
					</g>
					<g>
						<path class="st4" d="M107.2,19.9l-1.6,3c-0.4,0.7-0.8,1.1-1.3,1.2c-0.5,0.1-1.1,0-1.8-0.3c-0.7-0.4-1.2-0.8-1.3-1.3
							c-0.2-0.5-0.1-1.1,0.3-1.7l1.6-3l1,0.5l-1.5,2.9c-0.2,0.4-0.3,0.8-0.2,1c0.1,0.3,0.3,0.5,0.6,0.7c0.4,0.2,0.7,0.2,1,0.1
							c0.3-0.1,0.5-0.4,0.8-0.8l1.5-2.9L107.2,19.9z"/>
					</g>
				</g>
				<g>
					<polygon class="st4" points="110.2,23.1 107.7,26.8 106.8,26.2 109.2,22.4 108.1,21.7 108.7,20.9 111.9,23 111.3,23.8 					"/>
				</g>
				<g>
					<g>
						<path class="st4" d="M112.4,29.2c0.4,0.3,0.8,0.4,1.3,0.4c0.5-0.1,0.9-0.3,1.2-0.7c0.3-0.4,0.5-0.8,0.4-1.3
							c0-0.5-0.2-0.9-0.6-1.2c-0.4-0.3-0.8-0.4-1.3-0.4c-0.5,0.1-0.9,0.3-1.2,0.7c-0.3,0.4-0.5,0.9-0.5,1.3
							C111.8,28.5,112.1,28.9,112.4,29.2L112.4,29.2z M115.9,29.6c-0.2,0.3-0.5,0.5-0.9,0.7c-0.3,0.2-0.7,0.3-1.1,0.3
							c-0.4,0-0.8,0-1.1-0.1c-0.4-0.1-0.7-0.3-1-0.5c-0.3-0.2-0.5-0.5-0.7-0.8c-0.2-0.3-0.3-0.6-0.4-0.9c-0.1-0.4-0.1-0.9,0-1.3
							c0.1-0.4,0.3-0.8,0.6-1.1c0.2-0.3,0.5-0.5,0.9-0.7c0.3-0.2,0.7-0.3,1.1-0.3c0.4,0,0.8,0,1.1,0.1c0.4,0.1,0.7,0.3,1,0.5
							c0.3,0.2,0.5,0.5,0.7,0.9c0.2,0.3,0.3,0.7,0.4,1.1c0,0.4,0,0.8-0.1,1.1C116.3,29,116.1,29.3,115.9,29.6L115.9,29.6z"/>
					</g>
					<g>
						<path class="st4" d="M114.9,32.4l4.5-3.2l0.9,0.9l-1.6,3c0,0.1-0.1,0.2-0.2,0.3c-0.1,0.1-0.2,0.2-0.3,0.4
							c0.1-0.1,0.3-0.2,0.4-0.3c0.1-0.1,0.2-0.1,0.3-0.2l3.1-1.5l0.8,0.9l-3.4,4.4l-0.8-0.8l2.1-2.6c0.2-0.2,0.3-0.3,0.4-0.4
							c0.1-0.1,0.2-0.2,0.2-0.3c0,0,0.1-0.1,0.1-0.1c0,0,0,0,0.1,0c-0.2,0.1-0.3,0.2-0.5,0.3c-0.1,0.1-0.2,0.1-0.3,0.2l-3.3,1.6
							l-0.5-0.5l1.7-3.3c0,0,0.1-0.1,0.1-0.2c0.1-0.1,0.2-0.3,0.4-0.5l-0.1,0.1c-0.2,0.2-0.4,0.4-0.7,0.6l0,0l-2.7,2L114.9,32.4z"/>
					</g>
					<g>
						<path class="st4" d="M122.5,39.7c0.3,0.4,0.7,0.6,1.2,0.7c0.5,0.1,0.9-0.1,1.3-0.4c0.4-0.3,0.7-0.7,0.8-1.2
							c0.1-0.5,0-0.9-0.3-1.3c-0.3-0.4-0.7-0.6-1.2-0.7c-0.5-0.1-0.9,0.1-1.3,0.4c-0.4,0.3-0.7,0.7-0.8,1.2
							C122.1,38.9,122.2,39.3,122.5,39.7L122.5,39.7z M125.7,40.9c-0.3,0.2-0.7,0.4-1,0.5c-0.4,0.1-0.7,0.1-1.1,0
							c-0.4-0.1-0.7-0.2-1.1-0.4c-0.3-0.2-0.6-0.5-0.8-0.8c-0.2-0.3-0.4-0.6-0.5-0.9c-0.1-0.3-0.1-0.7-0.1-1c0-0.4,0.1-0.9,0.3-1.2
							c0.2-0.4,0.5-0.7,0.8-1c0.3-0.2,0.7-0.4,1-0.5c0.4-0.1,0.7-0.1,1.1,0c0.4,0.1,0.7,0.2,1.1,0.4c0.3,0.2,0.6,0.5,0.9,0.8
							c0.2,0.3,0.4,0.6,0.5,1c0.1,0.4,0.1,0.8,0.1,1.1c-0.1,0.4-0.2,0.7-0.4,1.1C126.3,40.4,126,40.7,125.7,40.9L125.7,40.9z"/>
					</g>
				</g>
				<g>
					<polygon class="st4" points="129.1,43.2 125.3,45.5 124.7,44.5 128.5,42.2 127.8,41 128.7,40.5 130.7,43.8 129.8,44.3 					"/>
				</g>
				<g>
					<g>
						<path class="st4" d="M129.9,47.4l0.1,0.2c0.2,0.4,0.4,0.7,0.6,0.8c0.2,0.1,0.4,0.1,0.6,0c0.2-0.1,0.4-0.3,0.4-0.5
							c0-0.2-0.1-0.5-0.3-0.9l-0.1-0.2L129.9,47.4z M128.3,51.3l-0.6-1.2l1.7-2.4l-2.3,1.1l-0.5-1.1l4.9-2.4l0.7,1.5
							c0.3,0.6,0.4,1.1,0.3,1.5c-0.1,0.4-0.4,0.7-0.8,1c-0.3,0.2-0.7,0.2-1,0.1c-0.3-0.1-0.6-0.3-0.8-0.6L128.3,51.3z"/>
					</g>
				</g>
				<g>
					
						<rect x="128.8" y="51.4" transform="matrix(0.9269 -0.3753 0.3753 0.9269 -9.9035 53.1581)" class="st4" width="5.5" height="1.2"/>
				</g>
				<g>
					<polygon class="st4" points="131.1,59.1 129.7,54.7 134.9,56 134.1,53.5 135,53.3 136.4,57.5 131.1,56.2 132,58.8 					"/>
				</g>
				<g>
					<g>
						<path class="st4" d="M17.9,84.8l-3.2,0.4c-0.7,0.1-1.3,0-1.7-0.3c-0.4-0.3-0.6-0.9-0.7-1.6c-0.1-0.8,0-1.4,0.3-1.8
							c0.3-0.4,0.8-0.7,1.5-0.8l3.2-0.4l0.1,1.1l-3.1,0.4c-0.4,0.1-0.7,0.2-0.9,0.4c-0.2,0.2-0.3,0.5-0.2,0.9
							c0.1,0.4,0.2,0.7,0.4,0.8c0.2,0.2,0.6,0.2,1,0.2l3.1-0.4L17.9,84.8z"/>
					</g>
					<g>
						<path class="st4" d="M13.1,87.6l5.1-1.3l0.3,1.1l-2.4,3c-0.1,0.1-0.2,0.2-0.3,0.3c-0.1,0.1-0.3,0.2-0.5,0.4
							c0.1-0.1,0.3-0.1,0.4-0.2c0.1,0,0.3-0.1,0.6-0.2l2.8-0.7l0.3,1l-5.1,1.3L14,91.3l2.4-3.1c0.1-0.1,0.2-0.2,0.3-0.3
							c0.1-0.1,0.3-0.2,0.5-0.4c-0.1,0.1-0.3,0.1-0.4,0.2c-0.1,0.1-0.3,0.1-0.6,0.2l-2.9,0.7L13.1,87.6z"/>
					</g>
				</g>
				<g>
					
						<rect x="15" y="93.4" transform="matrix(0.9493 -0.3144 0.3144 0.9493 -28.6659 10.2986)" class="st4" width="5.2" height="1.1"/>
				</g>
				<g>
					<g>
						<path class="st4" d="M16.4,98.5l4.1-3.8l0.5,1.1L18.4,98c-0.1,0-0.2,0.1-0.3,0.2c-0.2,0.1-0.3,0.2-0.5,0.4
							c0.2-0.1,0.4-0.1,0.6-0.1c0.2,0,0.3-0.1,0.4-0.1l3.4-0.3l0.5,1.1l-5.6,0.2L16.4,98.5z"/>
					</g>
				</g>
				<g>
					<polygon class="st4" points="18.2,102.5 22.9,100.1 24.3,102.9 23.4,103.3 22.5,101.6 21.6,102.1 22.5,103.8 21.6,104.2 
						20.7,102.5 19.5,103.1 20.4,104.8 19.6,105.3 					"/>
				</g>
				<g>
					<g>
						<path class="st4" d="M23.7,106.3l0.1,0.1c0.2,0.4,0.4,0.6,0.6,0.7c0.2,0.1,0.3,0,0.6-0.1c0.2-0.1,0.3-0.3,0.3-0.5
							c0-0.2-0.1-0.5-0.3-0.8l-0.1-0.1L23.7,106.3z M22.5,110.2l-0.7-1.1l1.4-2.5l-2.1,1.3l-0.6-1l4.5-2.8l0.8,1.4
							c0.3,0.5,0.5,1,0.4,1.4c0,0.4-0.3,0.7-0.7,1c-0.3,0.2-0.6,0.3-1,0.2c-0.3-0.1-0.6-0.2-0.8-0.5L22.5,110.2z"/>
					</g>
					<g>
						<path class="st4" d="M23.7,110.8l0.9,0.1c-0.1,0.2-0.2,0.4-0.1,0.6c0,0.2,0.1,0.4,0.2,0.6c0.2,0.2,0.3,0.3,0.5,0.4
							c0.2,0,0.4,0,0.5-0.1c0.2-0.2,0.2-0.5,0.1-1.1c0-0.2-0.1-0.3-0.1-0.4c-0.1-0.5-0.1-0.9,0-1.2c0.1-0.3,0.2-0.5,0.5-0.7
							c0.3-0.3,0.7-0.3,1.2-0.2c0.4,0.1,0.8,0.4,1.1,0.8c0.2,0.3,0.3,0.5,0.4,0.8c0,0.3,0,0.5-0.1,0.8l-0.9-0.2
							c0.1-0.2,0.1-0.3,0.1-0.5c0-0.2-0.1-0.3-0.2-0.4c-0.1-0.2-0.3-0.3-0.5-0.3c-0.2,0-0.3,0-0.5,0.1c-0.2,0.2-0.3,0.5-0.1,1.1
							c0,0.1,0,0.2,0.1,0.3c0.1,0.5,0.1,0.9,0,1.2c-0.1,0.3-0.3,0.6-0.5,0.8c-0.4,0.3-0.8,0.4-1.2,0.3c-0.4-0.1-0.8-0.4-1.2-0.8
							c-0.2-0.3-0.4-0.6-0.4-1C23.6,111.3,23.6,111,23.7,110.8L23.7,110.8z"/>
					</g>
				</g>
				<g>
					
						<rect x="26.1" y="113.5" transform="matrix(0.7663 -0.6425 0.6425 0.7663 -66.5757 45.146)" class="st4" width="5.2" height="1.1"/>
				</g>
				<g>
					<g>
						<path class="st4" d="M29.9,117.9l0.4,0.4c0.4,0.4,0.8,0.6,1.2,0.6c0.4,0,0.8-0.2,1.2-0.6c0.4-0.4,0.6-0.8,0.6-1.2
							c0-0.4-0.2-0.8-0.6-1.2l-0.4-0.4L29.9,117.9z M28.4,117.7l3.8-3.7l1,1c0.4,0.4,0.7,0.7,0.8,1c0.2,0.3,0.3,0.6,0.3,0.9
							c0.1,0.4,0,0.8-0.1,1.1c-0.1,0.4-0.4,0.7-0.7,1c-0.3,0.3-0.7,0.6-1.1,0.7c-0.4,0.1-0.8,0.2-1.2,0.1c-0.3-0.1-0.6-0.2-0.8-0.3
							c-0.3-0.2-0.6-0.4-1-0.8l-0.3-0.3L28.4,117.7z"/>
					</g>
					<g>
						<path class="st4" d="M36.3,122.4l0.6-1.7c0,0,0.1-0.1,0.1-0.2c0.1-0.1,0.1-0.2,0.2-0.4c-0.1,0.1-0.3,0.2-0.4,0.3
							c-0.1,0.1-0.2,0.1-0.2,0.2l-1.5,0.9L36.3,122.4z M32.4,121.8l4.9-2.7l1,0.8l-1.8,5.3l-1-0.8l0.4-1.1l-1.6-1.3l-1,0.6
							L32.4,121.8z"/>
					</g>
					<g>
						<path class="st4" d="M39.1,125.9l0.5,0.4c0.5,0.3,0.9,0.5,1.3,0.4c0.4-0.1,0.7-0.3,1.1-0.8c0.3-0.5,0.5-0.9,0.4-1.3
							c-0.1-0.4-0.3-0.7-0.8-1.1l-0.5-0.4L39.1,125.9z M37.6,126l3-4.3l1.2,0.8c0.5,0.3,0.8,0.6,1,0.9c0.2,0.2,0.4,0.5,0.5,0.8
							c0.1,0.4,0.2,0.8,0.1,1.1c-0.1,0.4-0.2,0.8-0.5,1.2c-0.3,0.4-0.6,0.7-0.9,0.9c-0.3,0.2-0.7,0.3-1.1,0.3c-0.3,0-0.6,0-0.9-0.2
							c-0.3-0.1-0.7-0.3-1.1-0.6l-0.3-0.2L37.6,126z"/>
					</g>
					<g>
						<path class="st4" d="M47.9,129l0.1,0.1c0.3,0.1,0.5,0.2,0.7,0.1c0.2-0.1,0.3-0.2,0.5-0.5c0.1-0.2,0.1-0.4,0.1-0.6
							c-0.1-0.2-0.2-0.3-0.5-0.5l-0.1-0.1L47.9,129z M45.6,131l2.4-4.7l1.1,0.6c0.6,0.3,1,0.7,1.2,1c0.2,0.4,0.1,0.8-0.1,1.3
							c-0.2,0.5-0.6,0.7-1,0.8c-0.4,0.1-0.9,0-1.4-0.2l-0.3-0.1l-0.9,1.8L45.6,131z"/>
					</g>
					<g>
						<path class="st4" d="M52.8,133.4c0.4,0.2,0.9,0.2,1.3,0c0.4-0.2,0.7-0.5,0.9-1c0.2-0.5,0.2-0.9,0-1.3
							c-0.2-0.4-0.5-0.7-0.9-0.9c-0.4-0.2-0.9-0.2-1.3,0c-0.4,0.2-0.7,0.5-0.9,1c-0.2,0.5-0.2,0.9,0,1.3
							C52,132.9,52.3,133.2,52.8,133.4L52.8,133.4z M56,132.8c-0.1,0.3-0.3,0.7-0.6,0.9c-0.2,0.3-0.5,0.5-0.9,0.6
							c-0.3,0.1-0.7,0.2-1.1,0.2c-0.4,0-0.7-0.1-1.1-0.2c-0.3-0.1-0.6-0.3-0.8-0.5c-0.2-0.2-0.4-0.5-0.6-0.7
							c-0.2-0.4-0.3-0.8-0.4-1.2c0-0.4,0-0.8,0.2-1.2c0.1-0.4,0.3-0.7,0.6-0.9c0.3-0.3,0.5-0.5,0.9-0.6c0.3-0.1,0.7-0.2,1.1-0.2
							c0.4,0,0.7,0.1,1.1,0.2c0.3,0.1,0.6,0.3,0.9,0.6c0.3,0.3,0.5,0.6,0.6,0.9c0.1,0.3,0.2,0.7,0.2,1
							C56.2,132.1,56.1,132.4,56,132.8L56,132.8z"/>
					</g>
				</g>
				<g>
					<polygon class="st4" points="56.8,135.7 58.3,130.7 59.3,131 58.1,135.1 59.9,135.6 59.6,136.5 					"/>
				</g>
				<g>
					<polygon class="st4" points="61.1,136.9 62.2,131.7 63.3,132 62.2,137.1 					"/>
				</g>
				<g>
					<polygon class="st4" points="66.7,133.6 66,137.8 64.9,137.6 65.6,133.4 64.3,133.2 64.5,132.3 68.1,132.8 68,133.8 					"/>
				</g>
				<g>
					<path class="st4" d="M72,131.4l-1.2,1.2l-0.5,0l0.8-1.3L72,131.4z M68.9,138.2l0.4-5.2l3.1,0.3l-0.1,0.9l-2-0.2l-0.1,1.1l2,0.2
						l-0.1,0.9l-2-0.2l-0.1,1.3l2,0.2l-0.1,1L68.9,138.2z"/>
				</g>
				<g>
					<g>
						<path class="st4" d="M78.1,134.6c-0.2-0.2-0.5-0.4-0.7-0.4c-0.2-0.1-0.5-0.1-0.8-0.1c-0.6,0-1,0.2-1.3,0.5
							c-0.3,0.3-0.5,0.8-0.5,1.4c0,0.6,0.2,1,0.5,1.3c0.3,0.3,0.7,0.5,1.3,0.5c0.3,0,0.6-0.1,0.8-0.2c0.3-0.1,0.5-0.3,0.7-0.5v1.2
							c-0.2,0.1-0.5,0.2-0.8,0.3c-0.3,0.1-0.5,0.1-0.8,0.1c-0.8,0-1.5-0.3-2.1-0.8c-0.5-0.5-0.8-1.2-0.8-2c0-0.8,0.3-1.5,0.8-2
							c0.5-0.5,1.2-0.8,2.1-0.8c0.3,0,0.6,0,0.8,0.1c0.3,0.1,0.5,0.2,0.8,0.3L78.1,134.6z"/>
					</g>
					<g>
						<path class="st4" d="M80.1,138.4l-0.6-5.2l1.2-0.1l2.6,2.8c0.1,0.1,0.2,0.2,0.3,0.3c0.1,0.1,0.2,0.3,0.3,0.5
							c0-0.2-0.1-0.3-0.1-0.5c0-0.2-0.1-0.3-0.1-0.6l-0.3-2.9l1.1-0.1l0.6,5.2l-1.1,0.1l-2.7-2.8c-0.1-0.1-0.2-0.2-0.3-0.3
							c-0.1-0.1-0.2-0.3-0.3-0.5c0,0.1,0.1,0.3,0.1,0.4c0,0.2,0.1,0.3,0.1,0.6l0.3,3L80.1,138.4z"/>
					</g>
				</g>
				<g>
					
						<rect x="86.5" y="132.2" transform="matrix(0.9819 -0.1895 0.1895 0.9819 -23.9697 18.9422)" class="st4" width="1.1" height="5.2"/>
				</g>
				<g>
					<g>
						<path class="st4" d="M93.2,132c-0.3-0.1-0.5-0.2-0.8-0.3c-0.3,0-0.5,0-0.8,0.1c-0.5,0.1-0.9,0.4-1.2,0.8
							c-0.2,0.4-0.3,0.9-0.1,1.4c0.1,0.5,0.4,0.9,0.8,1.1c0.4,0.2,0.8,0.3,1.3,0.1c0.3-0.1,0.6-0.2,0.8-0.4c0.2-0.2,0.4-0.4,0.6-0.6
							l0.3,1.1c-0.2,0.2-0.4,0.4-0.6,0.5c-0.2,0.1-0.5,0.2-0.8,0.3c-0.8,0.2-1.5,0.1-2.2-0.2c-0.7-0.4-1.1-0.9-1.3-1.7
							c-0.2-0.8-0.1-1.5,0.3-2.1c0.4-0.6,1-1.1,1.8-1.3c0.3-0.1,0.5-0.1,0.8-0.1c0.3,0,0.5,0,0.8,0.1L93.2,132z"/>
					</g>
					<g>
						<path class="st4" d="M97.8,132.4l-1.2-1.4c0,0-0.1-0.1-0.2-0.2c-0.1-0.1-0.1-0.2-0.2-0.4c0,0.2,0.1,0.3,0.1,0.5
							c0,0.1,0,0.2,0,0.3l0.1,1.8L97.8,132.4z M95.4,135.4l0-5.6l1.2-0.5l3.8,4.2l-1.2,0.5l-0.8-0.9l-1.9,0.7l0.1,1.2L95.4,135.4z"
							/>
					</g>
					<g>
						<path class="st4" d="M104.9,130.3l0.5-0.3c0.5-0.3,0.8-0.6,0.9-1c0.1-0.4,0-0.8-0.3-1.3c-0.3-0.5-0.6-0.8-1-0.9
							c-0.4-0.1-0.8,0-1.3,0.3l-0.6,0.3L104.9,130.3z M104.4,131.7l-2.5-4.6l1.3-0.7c0.5-0.3,0.9-0.4,1.2-0.5
							c0.3-0.1,0.6-0.1,0.9-0.1c0.4,0.1,0.7,0.2,1.1,0.4c0.3,0.2,0.6,0.6,0.8,1c0.2,0.4,0.3,0.8,0.4,1.2c0,0.4,0,0.8-0.2,1.1
							c-0.1,0.3-0.3,0.5-0.5,0.7c-0.2,0.2-0.6,0.4-1.1,0.7l-0.3,0.2L104.4,131.7z"/>
					</g>
				</g>
				<g>
					<polygon class="st4" points="109.9,128.5 107,124.1 109.6,122.4 110.1,123.2 108.5,124.3 109.1,125.2 110.7,124.1 111.2,124.9 
						109.6,126 110.3,127.1 112,126 112.5,126.8 					"/>
				</g>
				<g>
					<g>
						<path class="st4" d="M117.7,120.2l0.6,0.1c0-0.2,0-0.5-0.1-0.7c-0.1-0.2-0.2-0.4-0.4-0.6c-0.3-0.4-0.7-0.6-1.2-0.6
							c-0.5,0-0.9,0.1-1.2,0.4c-0.4,0.3-0.5,0.7-0.5,1.2c0,0.5,0.2,0.9,0.5,1.2c0.3,0.4,0.7,0.6,1.2,0.6c0.5,0,0.9-0.1,1.2-0.4
							c0,0,0.1-0.1,0.1-0.1c0-0.1,0.1-0.1,0.2-0.2l-1.1-0.1L117.7,120.2z M120.8,120.6l-0.8,0.7l-0.9-0.1c-0.1,0.2-0.3,0.4-0.4,0.5
							c-0.1,0.1-0.2,0.2-0.3,0.3c-0.3,0.2-0.6,0.4-0.9,0.6c-0.3,0.1-0.7,0.2-1.1,0.2c-0.4,0-0.7-0.1-1-0.2c-0.3-0.2-0.6-0.4-0.9-0.6
							c-0.2-0.3-0.4-0.6-0.6-0.9c-0.1-0.3-0.2-0.7-0.1-1.1c0-0.4,0.1-0.7,0.3-1c0.2-0.3,0.4-0.6,0.7-0.9c0.3-0.2,0.6-0.4,0.9-0.6
							c0.3-0.1,0.7-0.2,1.1-0.2c0.4,0,0.7,0.1,1.1,0.3c0.3,0.1,0.6,0.4,0.9,0.6c0.3,0.3,0.5,0.6,0.6,1c0.1,0.4,0.1,0.8,0.1,1.2
							L120.8,120.6z"/>
					</g>
					<g>
						<path class="st4" d="M120.8,111.9l2.4,2.2c0.5,0.5,0.8,1,0.8,1.5c0,0.5-0.2,1.1-0.7,1.6c-0.5,0.6-1,0.9-1.5,0.9
							c-0.5,0.1-1-0.2-1.6-0.6l-2.4-2.2l0.7-0.8l2.3,2c0.3,0.3,0.6,0.4,0.9,0.4c0.3,0,0.6-0.1,0.8-0.4c0.3-0.3,0.4-0.6,0.3-0.9
							c0-0.3-0.2-0.6-0.5-0.9l-2.3-2L120.8,111.9z"/>
					</g>
				</g>
				<g>
					<polygon class="st4" points="126,113.8 121.8,110.7 123.6,108.2 124.4,108.8 123.2,110.3 124.1,111 125.2,109.4 126,110 
						124.8,111.5 125.9,112.3 127.1,110.7 127.8,111.3 					"/>
				</g>
				<g>
					<g>
						<path class="st4" d="M126.9,107.2l0.1-0.1c0.2-0.4,0.4-0.7,0.3-0.8c0-0.2-0.1-0.3-0.3-0.5c-0.2-0.1-0.4-0.2-0.6-0.1
							c-0.2,0.1-0.4,0.3-0.6,0.7l-0.1,0.1L126.9,107.2z M130.9,106.5l-0.7,1.1l-2.8-0.1l2.1,1.3l-0.6,1l-4.5-2.8l0.8-1.4
							c0.3-0.5,0.7-0.9,1.1-1c0.4-0.1,0.8-0.1,1.2,0.2c0.3,0.2,0.5,0.4,0.6,0.8c0.1,0.3,0.1,0.6-0.1,1L130.9,106.5z"/>
					</g>
				</g>
				<g>
					<path class="st4" d="M131.6,105.1l-4.7-2.4l1.4-2.8l0.8,0.4l-0.9,1.8l1,0.5l0.9-1.8l0.8,0.4l-0.9,1.8l1.2,0.6l0.9-1.8l0.8,0.4
						L131.6,105.1z M126.5,99.6l0.7,1.6l-0.2,0.5l-0.9-1.2L126.5,99.6z"/>
				</g>
				<g>
					<polygon class="st4" points="130.6,97.2 134.6,98.8 134.1,99.9 130.2,98.2 129.7,99.4 128.8,99 130.2,95.6 131.1,96 					"/>
				</g>
				<g>
					<g>
						<path class="st4" d="M134.4,93.3l-1.8,0c-0.1,0-0.1,0-0.3,0c-0.1,0-0.3,0-0.5-0.1c0.1,0.1,0.3,0.2,0.4,0.2
							c0.1,0.1,0.2,0.1,0.2,0.1l1.4,1.1L134.4,93.3z M135.3,97.1l-4.4-3.5l0.4-1.2l5.6-0.3l-0.4,1.2l-1.2,0.1l-0.6,1.9l0.9,0.7
							L135.3,97.1z"/>
					</g>
					<g>
						<path class="st4" d="M134.6,88.9l0-0.2c0.1-0.4,0.1-0.7,0.1-0.9c-0.1-0.2-0.2-0.3-0.5-0.3c-0.3-0.1-0.4,0-0.6,0.1
							c-0.1,0.1-0.3,0.4-0.4,0.8l0,0.2L134.6,88.9z M138.1,87l-0.3,1.3l-2.7,0.8l2.4,0.6l-0.3,1.1l-5.1-1.2l0.4-1.6
							c0.1-0.6,0.4-1.1,0.7-1.3c0.3-0.3,0.7-0.3,1.2-0.2c0.4,0.1,0.6,0.3,0.8,0.5c0.2,0.3,0.3,0.6,0.3,0.9L138.1,87z"/>
					</g>
					<g>
						<path class="st4" d="M137.9,82.8c0.1-0.5-0.1-0.9-0.3-1.2c-0.3-0.3-0.7-0.6-1.2-0.6c-0.5-0.1-0.9,0-1.3,0.3
							c-0.4,0.3-0.6,0.6-0.7,1.1c-0.1,0.5,0.1,0.9,0.4,1.2c0.3,0.4,0.7,0.6,1.2,0.6c0.5,0.1,0.9,0,1.3-0.3
							C137.6,83.7,137.9,83.3,137.9,82.8L137.9,82.8z M136.5,79.8c0.4,0,0.7,0.2,1,0.3c0.3,0.2,0.6,0.4,0.8,0.7
							c0.2,0.3,0.4,0.6,0.5,1c0.1,0.4,0.1,0.7,0.1,1.1c0,0.3-0.1,0.6-0.3,0.9c-0.1,0.3-0.3,0.5-0.6,0.8c-0.3,0.3-0.6,0.5-1,0.6
							c-0.4,0.1-0.8,0.2-1.2,0.1c-0.4-0.1-0.7-0.2-1-0.3c-0.3-0.2-0.6-0.4-0.8-0.7c-0.2-0.3-0.4-0.6-0.5-1c-0.1-0.4-0.1-0.7-0.1-1.1
							c0-0.4,0.2-0.7,0.3-1c0.2-0.3,0.4-0.6,0.7-0.8c0.3-0.2,0.6-0.4,1-0.5C135.8,79.8,136.2,79.8,136.5,79.8L136.5,79.8z"/>
					</g>
				</g>
			</g>
		</g>
	</g>
</g>
</svg>
